<svg id="Lag_2" data-name="Lag 2" xmlns="http://www.w3.org/2000/svg" viewBox="0 0 141.73 141.73"><defs><style>.cls-1{fill:#c8a374;}</style></defs><path class="cls-1" d="M68,92.64c-1.78-1.65-.6-3.78-1.87-7.52-1.21-3.54-3.26-4.6-5.64-7.51-3.06-3.74-4-7.34-5.64-13.15a50.15,50.15,0,0,1,0-28.18A49.37,49.37,0,0,1,71.71,11.87,49.37,49.37,0,0,1,88.62,36.28a50.15,50.15,0,0,1,0,28.18C87,70.27,86,73.87,83,77.61c-2.38,2.91-4.43,4-5.63,7.51-1.27,3.74-.1,5.87-1.88,7.52A6.12,6.12,0,0,1,68,92.64Z"/><path class="cls-1" d="M83,98.27c-1.79-1.87-.54-5.71,1.88-13.15A59.63,59.63,0,0,1,90.49,72c2.11-3.53,6.09-10.21,13.15-15,11.2-7.63,23.9-6.29,28.18-5.64a62.4,62.4,0,0,1-7.52,26.3c-3,5.42-6.28,11.37-13.14,15-1.67.88-5.5,1.84-13.15,3.75C85.69,99.47,84,99.32,83,98.27Z"/><path class="cls-1" d="M61.41,98.51c1.79-1.87.54-5.72-1.88-13.15A59.24,59.24,0,0,0,53.9,72.21c-2.11-3.54-6.09-10.22-13.15-15-11.2-7.63-23.9-6.28-28.18-5.63a62.36,62.36,0,0,0,7.52,26.29c3,5.43,6.28,11.38,13.14,15,1.67.89,5.5,1.84,13.15,3.76C58.7,99.71,60.4,99.55,61.41,98.51Z"/><path class="cls-1" d="M65.77,110.25c-.52-3.79-4.8-7.14-10.58-8a34.8,34.8,0,0,0-34.08,14.14,28.4,28.4,0,0,0,16.42,9.13,29.66,29.66,0,0,0,20.21-4.66C61.17,118.48,66.41,114.89,65.77,110.25Z"/><path class="cls-1" d="M78.21,110.37c.52-3.8,4.8-7.14,10.58-8a34.83,34.83,0,0,1,34.08,14.15,28.37,28.37,0,0,1-16.41,9.13,29.66,29.66,0,0,1-20.22-4.67C82.81,118.6,77.57,115,78.21,110.37Z"/><path class="cls-1" d="M71.71,96.39c-1.78,0-3.35,4.37-3.76,7.52-.77,5.91,2.11,10.8,3.76,13.14,1.65-2.34,4.53-7.23,3.76-13.14C75.06,100.76,73.49,96.39,71.71,96.39Z"/></svg>