<svg id="Lag_2" data-name="Lag 2" xmlns="http://www.w3.org/2000/svg" viewBox="0 0 141.73 141.73"><defs><style>.cls-1{fill:#fff;}</style></defs><path class="cls-1" d="M71,91.43c-1.78-1.65-.6-3.77-1.87-7.51-1.21-3.54-3.26-4.6-5.64-7.51-3.06-3.74-4-7.35-5.63-13.15a50,50,0,0,1,0-28.18,49.35,49.35,0,0,1,16.9-24.42A49.41,49.41,0,0,1,91.68,35.08a50.15,50.15,0,0,1,0,28.18c-1.6,5.8-2.58,9.41-5.64,13.15-2.38,2.91-4.43,4-5.63,7.51-1.27,3.74-.1,5.86-1.88,7.51A6.1,6.1,0,0,1,71,91.43Z"/><path class="cls-1" d="M86,97.07c-1.79-1.87-.54-5.71,1.88-13.15a59.63,59.63,0,0,1,5.63-13.15c2.11-3.53,6.09-10.22,13.15-15,11.2-7.62,23.9-6.28,28.18-5.63a62.4,62.4,0,0,1-7.52,26.3c-3,5.42-6.28,11.37-13.14,15-1.67.89-5.5,1.85-13.15,3.76C88.75,98.27,87.05,98.12,86,97.07Z"/><path class="cls-1" d="M64.47,97.3c1.79-1.87.54-5.71-1.88-13.15A59.63,59.63,0,0,0,57,71c-2.11-3.53-6.09-10.21-13.15-15-11.2-7.63-23.9-6.29-28.18-5.64a62.4,62.4,0,0,0,7.52,26.3c3,5.43,6.28,11.37,13.14,15,1.67.88,5.5,1.84,13.15,3.75C61.76,98.5,63.46,98.35,64.47,97.3Z"/><path class="cls-1" d="M68.83,109c-.52-3.79-4.8-7.14-10.58-8a34.83,34.83,0,0,0-34.08,14.15,28.4,28.4,0,0,0,16.42,9.13,29.63,29.63,0,0,0,20.21-4.67C64.23,117.27,69.47,113.68,68.83,109Z"/><path class="cls-1" d="M81.27,109.16c.52-3.79,4.8-7.14,10.58-8a35.38,35.38,0,0,1,20.47,2.8,35,35,0,0,1,13.61,11.35,28.37,28.37,0,0,1-16.41,9.13,29.66,29.66,0,0,1-20.22-4.67C85.87,117.39,80.63,113.8,81.27,109.16Z"/><path class="cls-1" d="M74.77,95.19c-1.78,0-3.35,4.37-3.76,7.51-.77,5.91,2.11,10.81,3.76,13.15,1.65-2.34,4.53-7.24,3.76-13.15C78.12,99.56,76.55,95.19,74.77,95.19Z"/></svg>