<svg id="Lag_2" data-name="Lag 2" xmlns="http://www.w3.org/2000/svg" viewBox="0 0 141.73 141.73"><defs><style>.cls-1,.cls-2{fill:#c8a374;}.cls-1{stroke:#c8a374;stroke-miterlimit:10;}</style></defs><path class="cls-1" d="M130.2,46.87a34.16,34.16,0,0,0-10-23c-6.5-6.5-14.5-8.5-24-9-8.5-.45-37.5-.5-46,0-9.49.55-17.5,2.5-24,9s-9.31,18.91-9.5,23.5v46c0,9,2.5,16.5,9,23,7,7,15,9,24,9h47c9,0,17-2,24-9,6.52-6.52,9-14,9.5-23.5C130.2,83.37,130.7,56.37,130.2,46.87Zm-13,56c-2.5,5.5-5.11,9.37-10,11-7.5,2.5-13.94,2.06-34,2-19.45-.07-26.5.5-33-2-5.63-2.17-8.5-5.5-11-11-3.42-7.54-3-24.5-3-33,0-7.5-1-25.77,3-33,2.5-4.5,5.68-8,11-10,6.5-2.5,24-2.5,33.5-2.5s26,0,33.5,2.5a18.4,18.4,0,0,1,11,11c2.5,6.5,2,23.5,2,32C120.2,79.37,120.63,95.33,117.2,102.87Z"/><path class="cls-2" d="M97.2,40.87a6.52,6.52,0,1,1,6,6A6.62,6.62,0,0,1,97.2,40.87Z"/><path class="cls-2" d="M73.2,41.87a29.29,29.29,0,0,0-29,28,29.29,29.29,0,0,0,29,29c15.84,0,29.28-13.11,29-29C101.94,54.32,88.66,41.85,73.2,41.87Zm0,47c-10.28,0-19.27-8.57-19-19,.27-10.1,9.11-18,19-18s18.74,7.9,19,18C92.48,80.3,83.49,88.87,73.2,88.87Z"/></svg>