<svg id="Lag_2" data-name="Lag 2" xmlns="http://www.w3.org/2000/svg" viewBox="0 0 141.73 141.73"><defs><style>.cls-1{fill:#c8a374;stroke:#c8a374;stroke-miterlimit:10;}</style></defs><path class="cls-1" d="M19.13,26.87h103c6.5,0,12,9.31,12,13a22.55,22.55,0,0,1,0,4.52c-.5,2-.5,3-2.5,5l-43,33c-4,3-12,10-18,10s-14-7-18-10c-33-25-35.93-25.93-43-33-1.76-1.77-1.83-4.11-2-5v-5C7.63,32.37,12.63,26.87,19.13,26.87Z"/><path class="cls-1" d="M9.63,59.37c2,1.67,4,3.33,6,5,10.73,8.79,21.44,16.76,32,24,6,4,14,12,23,12s18-8,23-12l38-29c1-1,2,0,2,1v52c0,7-5,13-12,13h-102c-7,0-12-6-12-13v-51C7.63,59.37,7.63,59.37,9.63,59.37Z"/></svg>