<svg id="Lag_1" data-name="Lag 1" xmlns="http://www.w3.org/2000/svg" viewBox="0 0 339.43 142.43"><defs><style>.cls-1,.cls-14,.cls-15,.cls-16,.cls-2,.cls-5{fill:#fff;}.cls-1{stroke:#fff;stroke-miterlimit:10;}.cls-14,.cls-2,.cls-5{font-size:20.53px;font-family:MetaSerifPro-Bold, Meta Serif Pro;font-weight:700;}.cls-2{letter-spacing:0.04em;}.cls-3{letter-spacing:-0.04em;}.cls-4{letter-spacing:0.03em;}.cls-6{letter-spacing:0.05em;}.cls-7{letter-spacing:0.02em;}.cls-8{letter-spacing:0.02em;}.cls-9{letter-spacing:0.03em;}.cls-10{letter-spacing:0.01em;}.cls-11{letter-spacing:0.02em;}.cls-12{letter-spacing:0.02em;}.cls-13{letter-spacing:0.01em;}.cls-14{letter-spacing:0.01em;}.cls-15{font-size:10.8px;font-family:LucidaBright-Demi, Lucida Bright;font-weight:300;letter-spacing:0.03em;}</style></defs><path class="cls-1" d="M143.12,73.79h0a5.87,5.87,0,0,0-3.49-.86L41.55,74.68c33.77.15,66.46-.15,100.23,0C142.88,74.68,143.61,74.2,143.12,73.79Z"/><path class="cls-1" d="M193.69,73.78h0a5.88,5.88,0,0,1,3.49-.85l98.08,1.75c-33.77.14-66.46-.16-100.23,0C193.92,74.67,193.2,74.19,193.69,73.78Z"/><path class="cls-1" d="M295.47,103.76c-32.05-.21-89.62.13-124.26,0a7.78,7.78,0,0,0-1.08,0c-33.77.22-93.73-.22-127.5,0L167,106.5l6.38,0Z"/><text class="cls-2" transform="translate(40.85 95.04)">ww<tspan class="cls-3" x="35.06" y="0">w</tspan><tspan class="cls-4" x="50.95" y="0">.</tspan></text><text class="cls-5" transform="translate(98.34 95.04) scale(1 1.09)"><tspan class="cls-4">b</tspan><tspan class="cls-6" x="12.91" y="0">r</tspan><tspan x="22.4" y="0">y</tspan><tspan class="cls-7" x="33.73" y="0">g</tspan><tspan class="cls-8" x="45.39" y="0">g</tspan><tspan class="cls-9" x="56.95" y="0">eris</tspan><tspan class="cls-10" x="94.78" y="0">k</tspan><tspan class="cls-11" x="107.16" y="0">o</tspan><tspan class="cls-12" x="119.54" y="0">v</tspan><tspan class="cls-13" x="131.28" y="0">l</tspan><tspan class="cls-7" x="137.89" y="0">y</tspan><tspan class="cls-4" x="149.64" y="0">st</tspan></text><text class="cls-14" transform="translate(266.14 95.04)">.<tspan class="cls-4" x="6.02" y="0">dk</tspan></text><text class="cls-15" transform="translate(132.22 64.6)">20</text><text class="cls-15" transform="translate(193.76 64.35)">04</text><path class="cls-16" d="M188.38,72.92l-.29.06A.52.52,0,0,0,188.38,72.92Z"/><path class="cls-16" d="M191.92,67a1.07,1.07,0,0,0-.19-1.59,4.81,4.81,0,0,0-1.27-.3c-.42-.11-.85-.53-.68-.93s.64-.4,1-.5a1.62,1.62,0,0,0,.94-2.35,1.07,1.07,0,0,0-.55-.41,2.1,2.1,0,0,0-.9,0,6,6,0,0,1-1.4,0c-.49-.07-1.06-.32-1.09-.81s.48-.77.87-1c.57-.4,1.3-.9,1.36-1.6a15,15,0,0,0,0-2.76.82.82,0,0,1-1-.36,2.41,2.41,0,0,1-.26-1.16,1.19,1.19,0,0,1,.09-.65c.17-.32.64-.59.46-.91a.52.52,0,0,0-.32-.21,7.56,7.56,0,0,0-3.2-.4,1.06,1.06,0,0,1-.5,0,.31.31,0,0,1-.17-.41l.11-.11,1.06-.83a2,2,0,0,1,.87-.46c.31,0,.63.06.94,0,.72-.16.9-1.1.92-1.85a.65.65,0,0,0,0-.24c-.09-.39-.6-.48-1-.47-1.36,0-2.88.21-4-.53a4.87,4.87,0,0,0-.6-2.88A11.64,11.64,0,0,0,182.21,42c-.49-.51-.85-1.14-1.38-1.6a6.4,6.4,0,0,0-1.35-.82,8.61,8.61,0,0,0-4.5-1.24,2.47,2.47,0,0,1-1.18,0,3,3,0,0,1-.6-.4,2.92,2.92,0,0,0-2.22-.5.83.83,0,0,0-.52.25c-.08.1-.12.22-.2.31a1,1,0,0,1-.37.25c-1.6.73-3.56.78-5.15,1.55a11.37,11.37,0,0,0-2.59,1.73,1.78,1.78,0,0,0-.44.51c-.2.4-.16,1-.56,1.2a6.67,6.67,0,0,1-1.52-1.28,4.41,4.41,0,0,1-1.19-3,2.31,2.31,0,0,1-.25,1.25c-.3.46-.86.64-1.29,1-1,.76-1.12,2.13-1.19,3.35,0,.3,0,.7.31.78s.35,0,.52,0c.36,0,.62.37.7.72a5.93,5.93,0,0,0,.23,1c.16.33.6.56.89.35a1.19,1.19,0,0,1,0-.85c.83-.17,1.85-.26,2.35.42.12.17.19.37.32.53.46.55,1.49.53,1.7,1.22.07.26,0,.57.15.79s.59.26.92.27a3.48,3.48,0,0,1,.64.07,3.61,3.61,0,0,1-1.81,1.74c-.22.09-.45.16-.68.23a7.59,7.59,0,0,1-.79-.44,1.67,1.67,0,0,0-.58-.29,2.86,2.86,0,0,0-.82.12,2.75,2.75,0,0,1-1.25-.23L157,50.4a3.92,3.92,0,0,1-1.13-.54,5.47,5.47,0,0,1-1.08-1.58,6.12,6.12,0,0,0-4.74-2.94c-.79-.05-1.78-.07-2.1-.79-.64,0-.93.78-1,1.42l-.43,2.71a2.27,2.27,0,0,0,0,1.13.79.79,0,0,0,.89.55,2.12,2.12,0,0,1-.26,1.46,3.42,3.42,0,0,0-.35.62.55.55,0,0,0,.18.63,1.13,1.13,0,0,0-1,1.24,2.5,2.5,0,0,0,.84,1.52,1.37,1.37,0,0,0,.65.39,1.48,1.48,0,0,0,.65-.08c1.9-.52,2.24-.8,4.17-.42-.2.52,1.27,1.27.85,1.64a1.17,1.17,0,0,1-1.53.09c-.16-.16-.29-.4-.51-.4s-.39.24-.6.34-.75-.08-1.1,0-.46.54-.53.9a1.12,1.12,0,0,0,0,.48c.18.78,1.72.57,1.83,1.37a8.5,8.5,0,0,1-2-.43c-.66-.11-1.53.2-1.55.88s.79,1,1.46,1.2a7.45,7.45,0,0,0,2.42.37,2.81,2.81,0,0,0,1.92-.89,11.67,11.67,0,0,1,1.62-1.45.82.82,0,0,1,.42-.15c.43,0,.69.56,1.12.62l-1,.49a13.82,13.82,0,0,0,4.38-.29c1.46-.16,3.15,0,4.05,1.2l-6.42.61a1.29,1.29,0,0,0-.52.13c-.28.15-.42.47-.64.7a2,2,0,0,1-1.65.42,4.53,4.53,0,0,0-1.76,0,3.35,3.35,0,0,0-.94.53c-.78.57-1.54,1.17-2.28,1.81a1,1,0,0,0-.3.36.84.84,0,0,0,.31.88,2.37,2.37,0,0,0,1.83.65,11.7,11.7,0,0,1,1.17-.15.93.93,0,0,1,.93.6A11.77,11.77,0,0,0,151,69.38c-.3.2-.59.44-.91.61a10.86,10.86,0,0,0-1.71.84c-.5.4-.72,1.26-.22,1.65a1.4,1.4,0,0,0,.95.18,11.15,11.15,0,0,0,4-.81c1.1-.49,2.08-1.24,3.2-1.71a1,1,0,0,1,.49-.12c.48,0,.73.61.73,1.09a3.64,3.64,0,0,0,.07,1.44c.1.21.32.41.54.35a.55.55,0,0,0,.26-.19l1.1-1.12c.21-.21.43-.51.29-.77s-.2-.19-.29-.3c-.28-.35.11-.92.57-1a1.66,1.66,0,0,1,1.17.6,2.64,2.64,0,0,0,1.08.8,1.18,1.18,0,0,0,1.25-.43,2.55,2.55,0,0,1,.38-.53c.31-.25.81-.19,1-.5a.71.71,0,0,0-.23-1,2.65,2.65,0,0,0-1-.33c-.17,0-.38-.13-.37-.3a.33.33,0,0,1,.09-.21,2.65,2.65,0,0,1,1.15-.69c.91-.36,2-.69,2.77,0a5.31,5.31,0,0,1,.77,1.28c.25.44.74.83,1.22.67,0,.53.09,1,.08,1.52a4.49,4.49,0,0,1-.56,2.46c-.71,1-2.07,1.23-3.29,1.37l-4.38.52a9.7,9.7,0,0,0,4.55.11l4-.53a8.59,8.59,0,0,1,1.75-.12,20.26,20.26,0,0,1,2.3.44,15.57,15.57,0,0,0,5.09-.22,53,53,0,0,0-5.89-.74c0-.18-.05-.35-.07-.52-.36-.14-.87.16-1.11-.14a.7.7,0,0,1-.09-.43c0-.43,0-.93,0-1.37a18.06,18.06,0,0,1,.45-4.63l2.73-.32a1.46,1.46,0,0,1,.48,1.08.78.78,0,0,1-.8.74c.6,1,1.88,1.15,3,1.4a11.68,11.68,0,0,1,4.07,1.82,1.17,1.17,0,0,0,.47.24,1.3,1.3,0,0,0,.44,0,3.82,3.82,0,0,1,3.07.68,6,6,0,0,0,.76.56,2.45,2.45,0,0,0,1.69.16,1.08,1.08,0,0,1-.8-.45c-.26-.32-.4-.73-.65-1.06a3.83,3.83,0,0,0-1.33-.94,9.59,9.59,0,0,0-2.64-1,5.06,5.06,0,0,1-1.51-.36c-.23-.14-.43-.32-.66-.45a4.88,4.88,0,0,0-2.5-.15.49.49,0,0,1-.29-.06c-.22-.15-.07-.53.18-.64s.53-.08.79-.17a1.27,1.27,0,0,0,.62-.55,9.38,9.38,0,0,1,.51-.94,1,1,0,0,1,1-.36,1,1,0,0,1,1,.47c.1.17.15.36.26.51.37.48,1.13.28,1.68,0A3,3,0,0,1,185.46,68a2,2,0,0,0,1.78.81,4.81,4.81,0,0,0,.29,2.57,1.25,1.25,0,0,0,.81.86c.58.11,1-.5,1.31-1l.78-1.44a1.35,1.35,0,0,0,.19-.54c0-.35-.24-.68-.2-1C190.49,67.52,191.45,67.45,191.92,67Z"/><path class="cls-16" d="M165,49.44c-.16.81.2,1.74-.26,2.43"/><path class="cls-16" d="M163.51,49a5.61,5.61,0,0,0-.09,1.29,5.53,5.53,0,0,1,0,.91l.06-.4a1.94,1.94,0,0,1-.12.43l.15-.35a1,1,0,0,1-.11.2,1.53,1.53,0,0,0-.15,1.15,1.5,1.5,0,0,0,2.74.36,3.26,3.26,0,0,0,.45-1.83,10.26,10.26,0,0,1,0-1.24l-.05.4s0-.08,0-.12a1.22,1.22,0,0,0,0-.6,1.16,1.16,0,0,0-.18-.56,1.51,1.51,0,0,0-2.05-.53,1.43,1.43,0,0,0-.69.89Z"/><path class="cls-16" d="M182.41,48.14a2.56,2.56,0,0,0,1,1.94c.25.18.54.33.66.62s-.08,1,.25,1.24a1.23,1.23,0,0,0,.46.18,4.13,4.13,0,0,1,1.33.92,1.8,1.8,0,0,0,1.46.55,17.62,17.62,0,0,0,.4,7.71"/><path class="cls-16" d="M180.91,48.14A4.31,4.31,0,0,0,182,50.82a2.61,2.61,0,0,0,.66.55c.46.23-.36,0,0-.35-.16.17.08,1,.15,1.2a2,2,0,0,0,1.28,1.25,2.22,2.22,0,0,1,.68.36,3.84,3.84,0,0,0,2.83,1.26l-1.44-1.9a19.57,19.57,0,0,0,.4,8.51,1.5,1.5,0,0,0,2.89-.8,16.12,16.12,0,0,1-.4-6.91c.14-.85-.38-2-1.45-1.9-.38,0-.65-.33-1-.58a5,5,0,0,0-.8-.57c-.18-.09-.36-.16-.54-.23l-.18-.06c-.17,0-.11,0,.18.11l.39.66c-.15-.36,0,.2,0-.23a4.78,4.78,0,0,0-.08-.74,2.34,2.34,0,0,0-.71-1.16c-.44-.39-.94-.6-1-1.15a1.53,1.53,0,0,0-1.5-1.5,1.51,1.51,0,0,0-1.5,1.5Z"/><path class="cls-16" d="M186.69,65.48c-.91-.48-2-.11-3,0-1.3.1-2.6-.26-3.9-.25a1.13,1.13,0,0,0-.77.22c-.53.48-.08,1.66-.75,1.89a.57.57,0,0,0,.61.21c-.51-1.33-1.15-2.81-2.47-3.35a.57.57,0,0,0-.63,0,.59.59,0,0,0-.08.49,6,6,0,0,0,.39,1.49,21.88,21.88,0,0,1-3.68-2.08"/><path class="cls-16" d="M187.45,64.19a6,6,0,0,0-3.48-.28,13,13,0,0,1-3.05-.14c-1.08-.11-2.3-.18-3.1.69a2.43,2.43,0,0,0-.57,1.21,5.74,5.74,0,0,0-.09.71c0,.19,0,.21,0,.05a1.14,1.14,0,0,1,.31-.41,1.5,1.5,0,0,0-.3,2.35,2.06,2.06,0,0,0,1.67.65c.86-.1,1.83-.89,1.44-1.9-.61-1.6-1.36-3.33-3-4.16a2.11,2.11,0,0,0-2.87.49c-.57.93-.2,2.18.16,3.13l2.21-1.69a24.18,24.18,0,0,1-3.68-2.08,1.51,1.51,0,0,0-2.06.53,1.54,1.54,0,0,0,.54,2.06,24.67,24.67,0,0,0,3.68,2.08,1.56,1.56,0,0,0,1.67-.12,1.48,1.48,0,0,0,.53-1.58,3.4,3.4,0,0,1-.33-1.43l-.2.75L177,65l-.54.54-.71,0,.18.09c-.22-.22.33.26.24.19a2.45,2.45,0,0,1,.46.56,8.55,8.55,0,0,1,.72,1.53l1.45-1.9.45.23L179,68.61a2.38,2.38,0,0,0,1.17-2.07c0-.06,0-.39,0-.27s0,.07,0-.09l-.48.51s1.09.07,1.19.08a15.59,15.59,0,0,0,2.73.18c.6,0,1.69-.44,2.29-.17a1.55,1.55,0,0,0,2.05-.54,1.52,1.52,0,0,0-.54-2Z"/><path class="cls-16" d="M163.93,63a2.35,2.35,0,0,0-1.36-2.27l.37,1.25A1.87,1.87,0,0,1,163,63.2a1,1,0,0,1-1.48.3,1.38,1.38,0,0,0,.57-.86,1.84,1.84,0,0,0-.06-.93c-.38-1.39-1.56-2.38-2.31-3.61-.18-.29-.32-.73,0-.94A.86.86,0,0,1,160,57l2.74-.47"/><path class="cls-16" d="M165.43,63a3.86,3.86,0,0,0-2.1-3.57,1.56,1.56,0,0,0-1.67.12,1.51,1.51,0,0,0-.53,1.58l.29,1c0,.16.1.32.14.49a2,2,0,0,1,.05.24q0-.28,0,0a.56.56,0,0,1,.1-.33c-.09.13-.06.1.09-.11s.24-.18.11-.1l.14,0c-.16,0-.1,0,.16,0-.16,0-.1,0,.16,0-.15,0-.1,0,.14.08-.13-.08-.1-.05.11.09l-.3,2.36a3.07,3.07,0,0,0,1.23-1.66,3.34,3.34,0,0,0-.05-1.88A8.06,8.06,0,0,0,162,58.61l-.4-.51c-.18-.22.11.15,0,0l-.2-.26c-.11-.16-.23-.32-.33-.49s-.06-.15,0,0c0-.16,0-.12,0,.14l0,.24c-.22.82-1.16.84-.57.73l.39-.07.78-.13,1.57-.28a1.49,1.49,0,0,0,1-1.84,1.54,1.54,0,0,0-1.84-1.05l-1.57.27a8.93,8.93,0,0,0-1.44.28A1.94,1.94,0,0,0,158,57.6a3.1,3.1,0,0,0,.64,1.62c.3.43.63.84,1,1.26l.2.25c-.15-.19-.07-.09,0,.05l.36.53c.06.1.32.43.3.56,0-.12-.09-.26,0,0s.07.21.1.31,0,.12,0,.18c0-.19,0-.22,0-.11a.54.54,0,0,1,0,.18c0-.18,0-.22,0-.11s0,.07.07-.11a1,1,0,0,1-.08.14c-.06.09,0,.06.08-.1-.12.12-.1.11.06,0a1.58,1.58,0,0,0-.72,1.09,1.43,1.43,0,0,0,.42,1.26,2.48,2.48,0,0,0,3.71-.4c.81-1.16.19-2.61-.16-3.82L161.82,62l.26.15c.27.14-.2-.21,0,0a2.23,2.23,0,0,0,.21.22c-.12-.16-.14-.2-.08-.1l.08.12,0,.09c.07.15.07.12,0-.09,0,0,.08.25.09.29l0,.1c0,.13,0,.13,0,0s0-.13,0,0a1.48,1.48,0,0,1,0,.21,1.5,1.5,0,1,0,3,0Z"/><path class="cls-16" d="M163.76,53.43,161.23,53c-.17,0-.39-.1-.41-.28s.18-.31.37-.33a1.23,1.23,0,0,0,.54-.09c.27-.17.26-.64.56-.77s.6.13.9.07a.6.6,0,0,0,.42-.64,2.45,2.45,0,0,0-.26-.79,4.59,4.59,0,0,1-.31-2.54.9.9,0,0,1,.21-.49.87.87,0,0,1,.6-.16l4.8-.19a1.46,1.46,0,0,0-.63-.6"/><path class="cls-16" d="M164.16,52l-1.49-.26L162,51.6a1.51,1.51,0,0,0-.37-.07l-.09,0a1.36,1.36,0,0,1,.37.21l.38.66,0,.23-.21.76a1,1,0,0,1-.82.49h.17a2.21,2.21,0,0,0,.73-.15,2,2,0,0,0,1-.85c0-.08.07-.17.12-.25.25-.53,0,.37-.84.37-.39,0-.12,0,0,0a3,3,0,0,0,.6.08,2,2,0,0,0,2-1.65,2.4,2.4,0,0,0-.09-1.3c-.07-.21-.18-.41-.26-.62.11.28,0-.16-.07-.22s-.07-.26-.1-.39,0-.14,0-.2c0,.17,0,.17,0,0a7.48,7.48,0,0,1,0-.82c0,.32,0,0,0-.08-.06.73-.46.48-.79.66.09-.05.3,0,.42,0l.54,0,4-.15A1.52,1.52,0,0,0,170,46a3.23,3.23,0,0,0-1.18-1.14,1.5,1.5,0,1,0-1.51,2.59c.06,0,.35.24.06,0,.23.17-.12-.22,0,0l1.29-2.25-4.26.16a2.91,2.91,0,0,0-2.27.72,3.35,3.35,0,0,0-.63,2.35,6,6,0,0,0,.41,2c.07.16.15.32.21.48,0-.05,0-.17,0,0s0,0,0-.06a1.19,1.19,0,0,1,.07-.27l0-.08a1,1,0,0,1,1-.49c.06,0,.14,0,0,0a2.39,2.39,0,0,0-.7-.12,1.93,1.93,0,0,0-1.36.55c-.11.12-.5.55-.49.77l0,0L161,51s.59-.11.38-.13a2,2,0,0,0-.65.08,1.93,1.93,0,0,0-1.17.92A1.81,1.81,0,0,0,161,54.45l2.39.42a1.53,1.53,0,0,0,1.84-1A1.51,1.51,0,0,0,164.16,52Z"/><path class="cls-16" d="M158,42.55l2.33.73a.9.9,0,0,0,.8,0,1.87,1.87,0,0,0,.33-.45c.37-.52,1.14-.52,1.72-.79s.82-.61,1.28-.83c1.05-.49,2.25.08,3.34.46a10.55,10.55,0,0,0,4.28.57"/><path class="cls-16" d="M157.62,44c1.32.41,3.17,1.41,4.44.46.24-.18.4-.57.61-.71-.09,0,.25,0,.27,0a5.44,5.44,0,0,0,1.75-.84,1.16,1.16,0,0,1,1.16-.27c.62.15,1.21.41,1.82.61a12.05,12.05,0,0,0,4.43.54,1.54,1.54,0,0,0,1.5-1.5,1.5,1.5,0,0,0-1.5-1.5,9.46,9.46,0,0,1-3.39-.36,12.8,12.8,0,0,0-3.25-.86,3.88,3.88,0,0,0-1.74.39c-.4.2-.71.56-1.1.76s-1,.25-1.47.51a3,3,0,0,0-.61.45,4.94,4.94,0,0,0-.36.44q-.21.33,0,0l.76-.21a3.83,3.83,0,0,1-1.13-.31l-1.42-.44c-1.85-.59-2.64,2.31-.8,2.89Z"/><path class="cls-16" d="M153.12,57.42l-.38-.65a1.07,1.07,0,0,0-.19-.28c-.1-.09-.22-.15-.32-.24a1.18,1.18,0,0,1-.36-1,3.65,3.65,0,0,1,.34-1.06"/><path class="cls-16" d="M154.41,56.66l-.41-.72a2.27,2.27,0,0,0-.43-.54A3.74,3.74,0,0,0,153,55l.31.23a.91.91,0,0,1-.17-.17l.23.3a.82.82,0,0,1-.12-.2l.15.36a1.35,1.35,0,0,1-.09-.33l0,.4a1.34,1.34,0,0,1,0-.4l-.06.4a3.14,3.14,0,0,1,.24-.79l-.15.36.09-.22a1.09,1.09,0,0,0,.18-.55,1.12,1.12,0,0,0,0-.6,1.49,1.49,0,0,0-.69-.9,1.54,1.54,0,0,0-1.15-.15,1.43,1.43,0,0,0-.9.69,8.19,8.19,0,0,0-.42,1.07,3.06,3.06,0,0,0-.12,1,2.92,2.92,0,0,0,.37,1.26,2.38,2.38,0,0,0,.43.52,5.61,5.61,0,0,0,.55.41l-.31-.23a.54.54,0,0,1,.15.15l-.23-.3c.18.26.33.56.49.84a1.59,1.59,0,0,0,.9.69,1.5,1.5,0,0,0,1.69-2.21Z"/><path class="cls-16" d="M154,68.05,153,68a6,6,0,0,1,2.18.19,1.57,1.57,0,0,1,.72.35c.29.28.45.78.85.81s.54-.28.79-.48a1.53,1.53,0,0,1,1.29-.27.91.91,0,0,0,.51.07c.22,0,.33-.29.44-.48a7.77,7.77,0,0,1,2.66-2.32c1.94-1.33,3.7-3.15,6-3.51"/><path class="cls-16" d="M154,66.55l-1-.06v3a5.8,5.8,0,0,1,1.25,0,4.8,4.8,0,0,1,.63.15c.22.07,0,0-.05-.08.32.3.48.69.87.94a2,2,0,0,0,1.23.31,2.42,2.42,0,0,0,1.38-.64c.17-.13.1-.12.24-.16-.22.06,0,.06.13.09,1.18.29,1.86-.39,2.46-1.28a5.17,5.17,0,0,1,1.56-1.34c.68-.45,1.33-.93,2-1.43a10,10,0,0,1,4.18-2.27A1.51,1.51,0,0,0,169.9,62a1.54,1.54,0,0,0-1.85-1.05c-2,.37-3.67,1.64-5.29,2.87-.77.59-1.59,1.1-2.37,1.67a7.8,7.8,0,0,0-1.2,1,5.59,5.59,0,0,0-.52.66,2.49,2.49,0,0,0-.19.3c-.14.22-.11.21.09,0l.76-.21a5.19,5.19,0,0,0-1.8,0,9.73,9.73,0,0,0-1.37.82l.76-.2c.57-.07.74.67.44.16a2.81,2.81,0,0,0-.4-.51,3,3,0,0,0-1.19-.68,7.07,7.07,0,0,0-2.78-.3,1.5,1.5,0,0,0,0,3l1,.06a1.5,1.5,0,0,0,1.5-1.5,1.54,1.54,0,0,0-1.5-1.5Z"/><path class="cls-16" d="M184.58,50.73A5.88,5.88,0,0,0,182,48.29"/><path class="cls-16" d="M185.87,50a7.37,7.37,0,0,0-3.11-3,1.59,1.59,0,0,0-1.15-.15,1.5,1.5,0,0,0-1.05,1.85,1.5,1.5,0,0,0,.69.89,6.81,6.81,0,0,1,1,.64L182,50A6.2,6.2,0,0,1,183,51.05l-.24-.31a5.08,5.08,0,0,1,.49.75,1.56,1.56,0,0,0,.9.69,1.54,1.54,0,0,0,1.15-.15,1.51,1.51,0,0,0,.69-.9,1.62,1.62,0,0,0-.15-1.16Z"/><path class="cls-16" d="M159,45.2a4.31,4.31,0,0,1,2.32,1.58,11.66,11.66,0,0,1,1,1.21,2.64,2.64,0,0,0,.82.9,2.23,2.23,0,0,0,1.4.06l5.4-1"/><path class="cls-16" d="M158.64,46.65a1.86,1.86,0,0,1,.87.41,11.77,11.77,0,0,1,1.05,1.07c.77.85,1.29,2,2.49,2.3a9.26,9.26,0,0,0,3.72-.35l3.63-.65a1.5,1.5,0,0,0-.8-2.9l-3.32.6-1.66.3-.55.1-.14,0s.17.2,0,0-.19-.22-.13-.14l-.11-.16c-.18-.26-.38-.52-.58-.76s-.66-.77-1-1.13a5.29,5.29,0,0,0-2.68-1.66,1.54,1.54,0,0,0-1.84,1,1.51,1.51,0,0,0,1,1.85Z"/></svg>